<svg width="30" height="30" viewBox="0 0 33 32" fill="black" xmlns="http://www.w3.org/2000/svg">
<path d="M13.7565 22.0473H18.3295C18.4784 20.6163 19.1698 19.4353 20.2922 18.146C20.4197 18.0007 21.2307 17.1138 21.3266 16.9876C22.1233 15.9371 22.6227 14.6705 22.7672 13.3336C22.9117 11.9967 22.6956 10.6439 22.1436 9.43095C21.5916 8.21804 20.7262 7.19434 19.6471 6.47775C18.568 5.76117 17.3191 5.38083 16.0442 5.38054C14.7693 5.38026 13.5203 5.76003 12.4409 6.47613C11.3615 7.19223 10.4958 8.21554 9.94327 9.4282C9.39078 10.6409 9.17406 11.9936 9.31805 13.3305C9.46204 14.6675 9.9609 15.9343 10.7572 16.9852C10.8542 17.1126 11.6675 18.0007 11.7927 18.1448C12.9162 19.4353 13.6076 20.6163 13.7565 22.0473ZM18.299 24.4284H13.787V25.6189H18.299V24.4284ZM8.99748 18.4757C7.93511 17.0748 7.26931 15.3857 7.07678 13.6028C6.88425 11.82 7.17281 10.0161 7.90924 8.39876C8.64566 6.78146 9.79998 5.41663 11.2392 4.46148C12.6785 3.50632 14.3441 2.99971 16.0442 3C17.7444 3.00029 19.4098 3.50746 20.8488 4.4631C22.2878 5.41874 23.4417 6.78396 24.1776 8.40151C24.9135 10.0191 25.2015 11.8231 25.0085 13.6059C24.8154 15.3886 24.1491 17.0776 23.0863 18.4781C22.3869 19.3972 20.555 20.8568 20.555 22.6426V25.6189C20.555 26.2504 20.3174 26.8561 19.8943 27.3026C19.4712 27.7491 18.8974 28 18.299 28H13.787C13.1887 28 12.6148 27.7491 12.1918 27.3026C11.7687 26.8561 11.531 26.2504 11.531 25.6189V22.6426C11.531 20.8568 9.69797 19.3972 8.99748 18.4757ZM17.171 12.5278H19.991L14.915 19.671V14.9089H12.095L17.171 7.76094V12.529V12.5278Z" />
</svg>
