<svg width="30" height="30" viewBox="0 0 37 38" fill="black" xmlns="http://www.w3.org/2000/svg">
<g filter="url(#filter0_d_1102_1189)">
<g clip-path="url(#clip0_1102_1189)">
<path d="M26.4934 4.21758L23.5161 5.40539L22.9341 4.07812L21.6132 4.22086C20.2877 4.36354 19.1335 4.84118 18.0297 5.71044C16.9258 4.83905 15.7796 4.36184 14.4724 4.2208L13.151 4.07812L12.5695 5.40539L9.59153 4.21758L4.00535 17.2173L7.34099 18.486V27.9215L18.0291 22.5918L28.7171 27.9215V18.4947L32.0802 17.2177L26.4934 4.21758ZM8.98535 25.2681V19.1119L15.988 21.7762L8.98535 25.2681ZM17.207 20.4844L6.19118 16.2933L10.4708 6.33415L11.91 6.90864L8.23396 15.2935L17.207 18.7352L17.207 20.4844ZM17.207 16.9778L11.0144 14.6027C12.0723 14.0635 13.3286 13.9936 14.4751 14.4589L17.207 15.6516L17.207 16.9778ZM17.207 13.8614L15.1066 12.9446C13.8054 12.4133 12.4018 12.3767 11.128 12.7856L14.1742 5.83835C14.3434 5.88134 15.6483 5.83988 17.207 7.159V13.8614ZM18.8511 7.16004C20.3807 5.87215 21.8246 5.86039 21.9114 5.83841L24.945 12.7587C23.7447 12.3772 22.4396 12.4286 21.1752 12.9446L18.8511 13.8937V7.16004ZM18.8511 15.6659L21.7978 14.4626C22.912 14.0073 24.0747 14.0669 25.0838 14.5961L18.8511 16.9795V15.6659ZM27.0728 25.2681L20.0718 21.7768L27.0728 19.1188V25.2681ZM18.8511 20.4855V18.7356L27.8515 15.2941L24.1749 6.90864L25.6143 6.3342L29.8939 16.2929L18.8511 20.4855Z" />
</g>
</g>
<defs>
<filter id="filter0_d_1102_1189" x="-2" y="0" width="40.0856" height="40" filterUnits="userSpaceOnUse" color-interpolation-filters="sRGB">
<feFlood flood-opacity="0" result="BackgroundImageFix"/>
<feColorMatrix in="SourceAlpha" type="matrix" values="0 0 0 0 0 0 0 0 0 0 0 0 0 0 0 0 0 0 127 0" result="hardAlpha"/>
<feOffset dy="4"/>
<feGaussianBlur stdDeviation="2"/>
<feComposite in2="hardAlpha" operator="out"/>
<feColorMatrix type="matrix" values="0 0 0 0 0 0 0 0 0 0 0 0 0 0 0 0 0 0 0.25 0"/>
<feBlend mode="normal" in2="BackgroundImageFix" result="effect1_dropShadow_1102_1189"/>
<feBlend mode="normal" in="SourceGraphic" in2="effect1_dropShadow_1102_1189" result="shape"/>
</filter>
<clipPath id="clip0_1102_1189">
<rect width="28.0749" height="28" fill="white" transform="translate(4.00535 2)"/>
</clipPath>
</defs>
</svg>
